<svg width="17" height="17" viewBox="0 0 17 17" fill="none" xmlns="http://www.w3.org/2000/svg">
<path d="M0.292893 14.435C-0.0976311 14.8256 -0.0976311 15.4587 0.292893 15.8493C0.683418 16.2398 1.31658 16.2398 1.70711 15.8493L0.292893 14.435ZM16.1421 1.00001C16.1421 0.44773 15.6944 1.52364e-05 15.1421 1.49835e-05L6.14214 1.57843e-05C5.58985 1.54471e-05 5.14214 0.447731 5.14214 1.00002C5.14214 1.5523 5.58985 2.00002 6.14214 2.00002L14.1421 2.00002L14.1421 10C14.1421 10.5523 14.5899 11 15.1421 11C15.6944 11 16.1421 10.5523 16.1421 10L16.1421 1.00001ZM1.70711 15.8493L15.8492 1.70712L14.435 0.292909L0.292893 14.435L1.70711 15.8493Z" fill="#303030"/>
</svg>
